<svg width="44" height="44" viewBox="0 0 44 44" fill="none" xmlns="http://www.w3.org/2000/svg">
<path fill-rule="evenodd" clip-rule="evenodd" d="M11.9167 22C13.2409 22 14.5521 21.7392 15.7754 21.2324C16.9988 20.7257 18.1104 19.983 19.0467 19.0467C19.983 18.1103 20.7258 16.9988 21.2325 15.7754C21.7392 14.552 22 13.2408 22 11.9167C22 10.5925 21.7392 9.2813 21.2325 8.05794C20.7258 6.83457 19.983 5.72299 19.0467 4.78667C18.1104 3.85034 16.9988 3.10761 15.7754 2.60088C14.5521 2.09414 13.2409 1.83333 11.9167 1.83333C9.24244 1.83333 6.67771 2.89568 4.78671 4.78667C2.89572 6.67766 1.83337 9.24239 1.83337 11.9167C1.83337 14.5909 2.89572 17.1557 4.78671 19.0467C6.67771 20.9376 9.24244 22 11.9167 22ZM11.9167 5.51283C12.1598 5.51283 12.393 5.60941 12.5649 5.78131C12.7368 5.95322 12.8334 6.18638 12.8334 6.42949V11H17.4039C17.647 11 17.8801 11.0966 18.0521 11.2685C18.224 11.4404 18.3205 11.6735 18.3205 11.9167C18.3205 12.1598 18.224 12.3929 18.0521 12.5648C17.8801 12.7368 17.647 12.8333 17.4039 12.8333H12.8334V17.4038C12.8334 17.6469 12.7368 17.8801 12.5649 18.052C12.393 18.2239 12.1598 18.3205 11.9167 18.3205C11.6736 18.3205 11.4404 18.2239 11.2685 18.052C11.0966 17.8801 11 17.6469 11 17.4038V12.8333H6.42954C6.18643 12.8333 5.95327 12.7368 5.78136 12.5648C5.60945 12.3929 5.51287 12.1598 5.51287 11.9167C5.51287 11.6735 5.60945 11.4404 5.78136 11.2685C5.95327 11.0966 6.18643 11 6.42954 11H11V6.42949C11 6.18638 11.0966 5.95322 11.2685 5.78131C11.4404 5.60941 11.6736 5.51283 11.9167 5.51283Z" fill="black"/>
<path d="M37.5834 25.6667H34.4667C31.3867 25.6667 29.8467 25.6667 28.6697 26.2662C27.6349 26.7935 26.7935 27.6348 26.2662 28.6697C25.6667 29.8467 25.6667 31.3867 25.6667 34.4667V37.5833M28.4167 14.6667H25.6667M21.0834 22H23.8334M25.2084 7.33333H25.85C29.9567 7.33333 32.01 7.33333 33.5794 8.13266C34.9592 8.83572 36.081 9.95753 36.784 11.3373C37.5834 12.9067 37.5834 14.96 37.5834 19.0667V25.3898C37.5834 27.1828 37.5834 28.0812 37.3817 28.9245C37.2002 29.6725 36.905 30.3875 36.5017 31.0438C36.0489 31.7845 35.4145 32.4188 34.1459 33.6875L33.6875 34.1458C32.4189 35.4145 31.7845 36.0488 31.0439 36.5035C30.3879 36.9056 29.6727 37.2019 28.9245 37.3817C28.0812 37.5833 27.1829 37.5833 25.3899 37.5833H19.0667C14.96 37.5833 12.9067 37.5833 11.3374 36.784C9.95758 36.0809 8.83577 34.9591 8.13271 33.5793C7.33337 32.01 7.33337 29.9567 7.33337 25.85V25.2083" stroke="black" stroke-width="2.75" stroke-linecap="round" stroke-linejoin="round"/>
</svg>
