<svg width="43" height="43" viewBox="0 0 43 43" fill="none" xmlns="http://www.w3.org/2000/svg">
<path d="M39.4166 14.3333C39.4166 13.8581 39.2279 13.4024 38.8919 13.0664C38.5559 12.7304 38.1001 12.5417 37.625 12.5417H5.37496C4.89978 12.5417 4.44406 12.7304 4.10806 13.0664C3.77206 13.4024 3.58329 13.8581 3.58329 14.3333C3.58329 14.8085 3.77206 15.2642 4.10806 15.6002C4.44406 15.9362 4.89978 16.125 5.37496 16.125H37.625C38.1001 16.125 38.5559 15.9362 38.8919 15.6002C39.2279 15.2642 39.4166 14.8085 39.4166 14.3333ZM39.4166 21.5C39.4166 21.0248 39.2279 20.5691 38.8919 20.2331C38.5559 19.8971 38.1001 19.7083 37.625 19.7083H5.37496C4.89978 19.7083 4.44406 19.8971 4.10806 20.2331C3.77206 20.5691 3.58329 21.0248 3.58329 21.5C3.58329 21.9752 3.77206 22.4309 4.10806 22.7669C4.44406 23.1029 4.89978 23.2917 5.37496 23.2917H37.625C38.1001 23.2917 38.5559 23.1029 38.8919 22.7669C39.2279 22.4309 39.4166 21.9752 39.4166 21.5ZM37.625 26.875C38.1001 26.875 38.5559 27.0638 38.8919 27.3998C39.2279 27.7358 39.4166 28.1915 39.4166 28.6667C39.4166 29.1418 39.2279 29.5976 38.8919 29.9336C38.5559 30.2696 38.1001 30.4583 37.625 30.4583H16.125C15.6498 30.4583 15.1941 30.2696 14.8581 29.9336C14.5221 29.5976 14.3333 29.1418 14.3333 28.6667C14.3333 28.1915 14.5221 27.7358 14.8581 27.3998C15.1941 27.0638 15.6498 26.875 16.125 26.875H37.625Z" fill="#5F5F5F"/>
</svg>
