<svg width="30" height="8" viewBox="0 0 30 8" fill="none" xmlns="http://www.w3.org/2000/svg">
<path d="M3.91667 0.833313C2.175 0.833313 0.75 2.25831 0.75 3.99998C0.75 5.74165 2.175 7.16665 3.91667 7.16665C5.65833 7.16665 7.08333 5.74165 7.08333 3.99998C7.08333 2.25831 5.65833 0.833313 3.91667 0.833313ZM26.0833 0.833313C24.3417 0.833313 22.9167 2.25831 22.9167 3.99998C22.9167 5.74165 24.3417 7.16665 26.0833 7.16665C27.825 7.16665 29.25 5.74165 29.25 3.99998C29.25 2.25831 27.825 0.833313 26.0833 0.833313ZM15 0.833313C13.2583 0.833313 11.8333 2.25831 11.8333 3.99998C11.8333 5.74165 13.2583 7.16665 15 7.16665C16.7417 7.16665 18.1667 5.74165 18.1667 3.99998C18.1667 2.25831 16.7417 0.833313 15 0.833313Z" fill="#B3B3B3"/>
</svg>
